# xmcd
#
# Track frame offsets:
#	150
#	13531
#	24301
#	35175
#	43474
#	61238
#	76683
#	91834
#	110315
#	121227
#	131934
#
# Disc length: 1921 seconds
#
# Revision: 0
# Processed by: cddbd v1.5.2PL0 Copyright (c) Steve Scherf et al.
# Submitted via: dBpowerAMP V4.0
#
DISCID=89077f0b
DTITLE=Hank and Anne - Dit n' Daut
DYEAR=2005
DGENRE=country
TTITLE0=Loft Schep
TTITLE1=Himmbaa Mousse
TTITLE2=En Breef
TTITLE3=Tous Uppa Shtapp
TTITLE4=Meist Blint
TTITLE5=Alymer
TTITLE6=Schwien Schlachten
TTITLE7=En Awarock
TTITLE8=Atstow
TTITLE9=Raspberry Soup
TTITLE10=Meen Laven
EXTD=
EXTT0=
EXTT1=
EXTT2=
EXTT3=
EXTT4=
EXTT5=
EXTT6=
EXTT7=
EXTT8=
EXTT9=
EXTT10=
PLAYORDER=
